<svg width="24" height="24" viewBox="0 0 24 24" fill="none" xmlns="http://www.w3.org/2000/svg">
<path d="M15.0288 2.48972C14.1559 2.21472 13.4098 3.16871 13.8725 3.95871C14.6035 5.20471 14.9975 6.61072 14.9975 8.02072C14.9975 12.4387 11.4158 16.0207 6.9975 16.0207C6.16561 16.0207 5.3242 15.8857 4.56 15.6457C3.6871 15.3707 2.9097 16.3247 3.3725 17.1147C5.15 20.1467 8.39871 22.0207 11.9975 22.0207C17.5203 22.0207 21.9975 17.5437 21.9975 12.0207C21.9975 7.61972 19.157 3.78772 15.0288 2.48972ZM16.6225 5.48972C18.6866 6.94871 19.9975 9.35371 19.9975 12.0207C19.9975 16.4387 16.4158 20.0207 11.9975 20.0207C9.96941 20.0207 8.1156 19.2407 6.685 17.9587C6.7917 17.9617 6.8912 18.0207 6.9975 18.0207C12.5204 18.0207 16.9975 13.5437 16.9975 8.02072C16.9975 7.16372 16.8455 6.31571 16.6225 5.48972Z" fill="black"/>
</svg>
