<svg width="24" height="24" viewBox="0 0 24 24" fill="none" xmlns="http://www.w3.org/2000/svg">
<path fill-rule="evenodd" clip-rule="evenodd" d="M21 19C21 20.6569 19.6569 22 18 22C16.3431 22 15 20.6569 15 19C14.995 18.9168 14.995 18.8333 15 18.75C15.0175 18.5575 14.9245 18.3716 14.76 18.27L8.22 14.45C8.05548 14.3445 7.84453 14.3445 7.68 14.45C7.18968 14.8013 6.60316 14.9934 6 15C4.34315 15 3 13.6569 3 12C3 10.3432 4.34315 9.00001 6 9.00001C6.60101 9.00081 7.18734 9.18578 7.68 9.53001C7.84453 9.63557 8.05548 9.63557 8.22 9.53001L14.77 5.71001C14.924 5.60939 15.0119 5.4336 15 5.25001C14.995 5.16675 14.995 5.08327 15 5.00001C14.9921 3.5916 15.965 2.36734 17.3388 2.05696C18.7127 1.74659 20.1174 2.43368 20.7158 3.70869C21.3141 4.98369 20.945 6.50328 19.8283 7.36166C18.7117 8.22004 17.1483 8.18608 16.07 7.28001L9.23 11.28C9.06548 11.3816 8.97255 11.5675 8.99 11.76C9.00333 11.9264 9.00333 12.0936 8.99 12.26C8.97255 12.4526 9.06548 12.6384 9.23 12.74L15.78 16.56C15.9445 16.6656 16.1555 16.6656 16.32 16.56C16.8091 16.2051 17.3958 16.0096 18 16C19.6569 16 21 17.3432 21 19Z" fill="white"/>
</svg>
