<svg width="24" height="24" viewBox="0 0 24 24" fill="none" xmlns="http://www.w3.org/2000/svg">
<path d="M12.0156 1.95312C11.4636 1.95312 11.0156 2.40113 11.0156 2.95313V4.95313C11.0156 5.50513 11.4636 5.95313 12.0156 5.95313C12.5676 5.95313 13.0156 5.50513 13.0156 4.95313V2.95313C13.0156 2.40113 12.5676 1.95312 12.0156 1.95312ZM5.64062 4.57813C5.38462 4.57813 5.14863 4.69513 4.95363 4.89113C4.56263 5.28113 4.56263 5.90712 4.95363 6.29712L6.29663 7.67212C6.68763 8.06212 7.34462 8.06312 7.73461 7.67212C8.12461 7.28112 8.12561 6.62413 7.73461 6.23413L6.35962 4.89113C6.16362 4.69513 5.89662 4.57813 5.64062 4.57813ZM18.3596 4.60913C18.1036 4.60913 17.8676 4.69513 17.6716 4.89113L16.2966 6.23413C15.9066 6.62513 15.9066 7.28112 16.2966 7.67212C16.6876 8.06212 17.3436 8.06212 17.7346 7.67212L19.0776 6.29712C19.4686 5.90612 19.4686 5.28113 19.0776 4.89113C18.8826 4.69513 18.6156 4.60913 18.3596 4.60913ZM12.0156 6.95313C9.25462 6.95313 7.01562 9.19213 7.01562 11.9531C7.01562 14.7141 9.25462 16.9531 12.0156 16.9531C14.7766 16.9531 17.0156 14.7141 17.0156 11.9531C17.0156 9.19213 14.7766 6.95313 12.0156 6.95313ZM12.0156 8.95313C13.6726 8.95313 15.0156 10.2961 15.0156 11.9531C15.0156 13.6101 13.6726 14.9531 12.0156 14.9531C10.3586 14.9531 9.01562 13.6101 9.01562 11.9531C9.01562 10.2961 10.3586 8.95313 12.0156 8.95313ZM3.01562 10.9531C2.46362 10.9531 2.01562 11.4011 2.01562 11.9531C2.01562 12.5051 2.46362 12.9531 3.01562 12.9531H5.01562C5.56762 12.9531 6.01562 12.5051 6.01562 11.9531C6.01562 11.4011 5.56762 10.9531 5.01562 10.9531H3.01562ZM19.0156 10.9531C18.4636 10.9531 18.0156 11.4011 18.0156 11.9531C18.0156 12.5051 18.4636 12.9531 19.0156 12.9531H21.0156C21.5676 12.9531 22.0156 12.5051 22.0156 11.9531C22.0156 11.4011 21.5676 10.9531 21.0156 10.9531H19.0156ZM7.01562 15.9531C6.75962 15.9521 6.49263 16.0391 6.29663 16.2341L4.92163 17.6091C4.53063 17.9991 4.53263 18.6241 4.92163 19.0151C5.31163 19.4071 5.96762 19.4051 6.35962 19.0151L7.73461 17.6721C8.12561 17.2821 8.12361 16.6261 7.73461 16.2341C7.53961 16.0391 7.27162 15.9541 7.01562 15.9531ZM17.0156 15.9531C16.7596 15.9531 16.4916 16.0391 16.2966 16.2341C15.9066 16.6251 15.9056 17.2821 16.2966 17.6721L17.7036 19.0471C18.0936 19.4371 18.7196 19.4381 19.1096 19.0471C19.4996 18.6561 19.5006 17.9991 19.1096 17.6091L17.7346 16.2341C17.5386 16.0391 17.2716 15.9531 17.0156 15.9531ZM12.0156 17.9531C11.4636 17.9531 11.0156 18.4011 11.0156 18.9531V20.9531C11.0156 21.5051 11.4636 21.9531 12.0156 21.9531C12.5676 21.9531 13.0156 21.5051 13.0156 20.9531V18.9531C13.0156 18.4011 12.5676 17.9531 12.0156 17.9531Z" fill="white"/>
</svg>
